<svg width="122.71249999999999px" height="122px" xmlns="http://www.w3.org/2000/svg" viewBox="188.64375 14 122.71249999999999 122" style="background: rgba(0, 0, 0, 0);" preserveAspectRatio="xMidYMid"><defs><filter id="editing-extrusion" x="-100%" y="-100%" width="300%" height="300%"><feFlood result="color1" flood-color="#444"></feFlood><feConvolveMatrix order="8,8" divisor="1" kernelMatrix="1 0 0 0 0 0 0 0 0 1 0 0 0 0 0 0 0 0 1 0 0 0 0 0 0 0 0 1 0 0 0 0 0 0 0 0 1 0 0 0 0 0 0 0 0 1 0 0 0 0 0 0 0 0 1 0 0 0 0 0 0 0 0 1" in="SourceAlpha" result="extrude"></feConvolveMatrix><feComposite in="color1" in2="extrude" result="comp-extrude" operator="in"></feComposite><feOffset dx="4" dy="4" in="comp-extrude" result="offset-extrude"></feOffset><feMerge><feMergeNode in="offset-extrude"></feMergeNode><feMergeNode in="SourceGraphic"></feMergeNode></feMerge></filter></defs><g filter="url(#editing-extrusion)"><g transform="translate(215.634126663208, 96.76000213623047)"><path d="M29.18 1.28L29.18 1.28L29.18 1.28Q20.99 1.28 20.22-10.37L20.22-10.37L9.22-10.37L9.22-10.37Q7.94-7.42 7.04-4.86L7.04-4.86L5.38 0L-3.58 0L16.58-42.24L30.34-42.24L33.02-11.14L33.02-11.14Q33.66-4.42 36.22-2.43L36.22-2.43L36.22-2.43Q34.37 1.28 29.18 1.28ZM14.72-23.17L11.20-15.04L20.03-15.04L19.26-31.49L19.26-33.22L14.72-23.17ZM66.69-9.86L66.69-9.86L66.69-9.86Q67.90-8.32 67.90-5.34L67.90-5.34L67.90-5.34Q67.90-2.37 65.63-0.54L65.63-0.54L65.63-0.54Q63.36 1.28 59.39 1.28L59.39 1.28L59.39 1.28Q57.09 1.28 53.50 0.77L53.50 0.77L53.50 0.77Q46.46-0.32 44.45-0.32L44.45-0.32L44.45-0.32Q42.43-0.32 41.60-0.22L41.60-0.22L41.60-0.22Q40.77-0.13 39.42 0L39.42 0L47.17-42.24L61.18-42.24L54.78-7.04L54.78-7.04Q55.62-6.91 56.38-6.91L56.38-6.91L57.98-6.91L57.98-6.91Q63.36-6.91 66.69-9.86Z" fill="#ccc"></path></g></g><style>text {
  font-size: 64px;
  font-family: Arial Black;
  dominant-baseline: central;
  text-anchor: middle;
}</style></svg>